<?xml version="1.0"?>
<svg xmlns="http://www.w3.org/2000/svg" xmlns:xlink="http://www.w3.org/1999/xlink" viewBox="0 0 64 64" width="512" height="512"><defs><linearGradient id="linear-gradient" x1="-0.172" y1="64.172" x2="61.587" y2="2.413" gradientUnits="userSpaceOnUse"><stop offset="0" stop-color="#003f8a"/><stop offset="0.518" stop-color="#00d7df"/><stop offset="1" stop-color="#006df0"/></linearGradient><linearGradient id="linear-gradient-2" x1="-5.922" y1="58.422" x2="55.837" y2="-3.337" xlink:href="#linear-gradient"/><linearGradient id="linear-gradient-3" x1="-21.172" y1="43.172" x2="40.587" y2="-18.587" xlink:href="#linear-gradient"/><linearGradient id="linear-gradient-4" x1="21.078" y1="85.422" x2="82.837" y2="23.663" xlink:href="#linear-gradient"/></defs><g id="Ai-2" data-name="Ai"><path d="M53,42a3.9,3.9,0,0,0-.532.054l-3.761-3.761A1,1,0,0,0,48,38H33V26H48a1,1,0,0,0,.707-.293l3.761-3.761A3.9,3.9,0,0,0,53,22a4.05,4.05,0,1,0-2.506-.908L47.586,24H37.414l3.293-3.293A1,1,0,0,0,41,20V15a1.026,1.026,0,0,0-.027-.134,4,4,0,1,0-1.946,0A1.026,1.026,0,0,0,39,15v4.586L34.586,24H30.5L25,16.667V9a1.026,1.026,0,0,0-.027-.134,4,4,0,1,0-1.946,0A1.026,1.026,0,0,0,23,9v8a1,1,0,0,0,.2.6L28,24H16.414l-2.908-2.908A3.977,3.977,0,1,0,11,22a3.9,3.9,0,0,0,.532-.054l3.761,3.761A1,1,0,0,0,16,26H31V38H22V35a1,1,0,0,0-2,0v3H16a1,1,0,0,0-.707.293l-3.761,3.761A3.9,3.9,0,0,0,11,42a4.05,4.05,0,1,0,2.506.908L16.414,40H26.586l-3.293,3.293A1,1,0,0,0,23,44v5a1.026,1.026,0,0,0,.027.134,4,4,0,1,0,1.946,0A1.026,1.026,0,0,0,25,49V44.414L29.414,40H33.5L39,47.333V55a1.026,1.026,0,0,0,.027.134,4,4,0,1,0,1.946,0A1.026,1.026,0,0,0,41,55V47a1,1,0,0,0-.2-.6L36,40H47.586l2.908,2.908A3.977,3.977,0,1,0,53,42Zm0-26a2,2,0,1,1-2,2A2,2,0,0,1,53,16ZM38,11a2,2,0,1,1,2,2A2,2,0,0,1,38,11ZM22,5a2,2,0,1,1,2,2A2,2,0,0,1,22,5ZM9,18a2,2,0,1,1,2,2A2,2,0,0,1,9,18Zm2,30a2,2,0,1,1,2-2A2,2,0,0,1,11,48Zm15,5a2,2,0,1,1-2-2A2,2,0,0,1,26,53Zm16,6a2,2,0,1,1-2-2A2,2,0,0,1,42,59ZM53,48a2,2,0,1,1,2-2A2,2,0,0,1,53,48Z" style="fill:url(#linear-gradient)"/><path d="M21,33a1,1,0,0,0,1-1V31a1,1,0,0,0-2,0v1A1,1,0,0,0,21,33Z" style="fill:url(#linear-gradient-2)"/><path d="M11,13a1,1,0,0,0,1-1V10a1,1,0,0,0-2,0v2A1,1,0,0,0,11,13Z" style="fill:url(#linear-gradient-3)"/><path d="M54,51a1,1,0,0,0-1,1v1a1,1,0,0,0,2,0V52A1,1,0,0,0,54,51Z" style="fill:url(#linear-gradient-4)"/></g></svg>
